<svg xmlns="http://www.w3.org/2000/svg" viewBox="0 0 512 512" role="img" aria-label="gitea-review-agent logo">
  <defs>
    <linearGradient id="bg" x1="88" y1="40" x2="424" y2="472" gradientUnits="userSpaceOnUse">
      <stop offset="0" stop-color="#303034" />
      <stop offset="0.56" stop-color="#1d1d1f" />
      <stop offset="1" stop-color="#111113" />
    </linearGradient>
    <linearGradient id="branch" x1="132" y1="134" x2="356" y2="366" gradientUnits="userSpaceOnUse">
      <stop offset="0" stop-color="#60b978" />
      <stop offset="1" stop-color="#248a3d" />
    </linearGradient>
    <linearGradient id="check" x1="250" y1="178" x2="394" y2="326" gradientUnits="userSpaceOnUse">
      <stop offset="0" stop-color="#7fc2ff" />
      <stop offset="1" stop-color="#0071e3" />
    </linearGradient>
    <filter id="shadow" x="-20%" y="-20%" width="140%" height="140%">
      <feDropShadow dx="0" dy="18" stdDeviation="18" flood-color="#000" flood-opacity="0.24" />
    </filter>
  </defs>

  <rect x="40" y="40" width="432" height="432" rx="104" fill="url(#bg)" />
  <rect x="56" y="56" width="400" height="400" rx="88" fill="none" stroke="#ffffff" stroke-opacity="0.08" />

  <g filter="url(#shadow)">
    <path
      d="M154 330V184c0-19 15-34 34-34s34 15 34 34c0 13-7 24-18 30v52c0 31 25 56 56 56h18"
      fill="none"
      stroke="url(#branch)"
      stroke-width="34"
      stroke-linecap="round"
      stroke-linejoin="round"
    />
    <circle cx="188" cy="184" r="19" fill="#f5f5f7" />
    <circle cx="188" cy="330" r="19" fill="#60b978" />
  </g>

  <path
    d="M267 286l45 45 91-119"
    fill="none"
    stroke="url(#check)"
    stroke-width="38"
    stroke-linecap="round"
    stroke-linejoin="round"
  />

  <path
    d="M274 133h91c29 0 52 23 52 52v36c0 29-23 52-52 52h-34l-42 35v-35h-15c-29 0-52-23-52-52v-36c0-29 23-52 52-52z"
    fill="#f5f5f7"
    fill-opacity="0.12"
    stroke="#f5f5f7"
    stroke-opacity="0.28"
    stroke-width="12"
  />
  <circle cx="301" cy="203" r="9" fill="#f5f5f7" fill-opacity="0.82" />
  <circle cx="338" cy="203" r="9" fill="#f5f5f7" fill-opacity="0.82" />
  <circle cx="375" cy="203" r="9" fill="#f5f5f7" fill-opacity="0.82" />
</svg>
